<svg preserveAspectRatio="xMidYMid meet" data-bbox="0 0 116.451 67.286" xmlns="http://www.w3.org/2000/svg" viewBox="0 0 116.451 67.286" height="68" width="117" data-type="color" role="presentation" aria-hidden="true" aria-label="">
    <g>
        <path fill="#1CB7C8" d="m115.895 26.264-13.232-12.242L88.416.838c-1.207-1.117-3.179-1.117-4.386 0L69.783 14.022 56.55 26.264c-1.198 1.107-.327 2.969 1.386 2.969h5.966c.66 0 1.194.536 1.194 1.2v12.983c0 .664.533 1.2 1.194 1.2h14.86c1.08 0 1.607-1.325.822-2.068-3.193-3.03-7.097-6.954-8.002-8.804-1.59-3.249-.258-7.179 2.976-8.777 3.23-1.598 7.139-.26 8.728 2.992.213.44.385 1.108.52 1.924.075-.48.161-.89.268-1.2 1.163-3.429 4.865-5.259 8.274-4.09 3.41 1.17 5.23 4.892 4.067 8.32-.681 2.01-4.882 6.373-8.247 9.645-.77.747-.237 2.058.833 2.058h14.77c.66 0 1.193-.536 1.193-1.2V30.433c0-.664.534-1.2 1.194-1.2h5.966c1.713 0 2.58-1.862 1.386-2.969z" data-color="1"></path>
        <path fill="#524868" d="M10.087 45.367h-7.96V31.04c0-.658.53-1.187 1.18-1.187s1.18.533 1.18 1.187v11.95h5.597c.654 0 1.18.532 1.18 1.186s-.53 1.187-1.18 1.187z" data-color="2"></path>
        <path fill="#524868" d="m32.471 43.295-6.723-13.163a1.845 1.845 0 0 0-3.289 0l-4.183 8.192-2.715-.01h-.003c-.65 0-1.18.529-1.18 1.183 0 .657.523 1.19 1.176 1.193l1.514.007L15.74 43.3c-.3.584-.069 1.3.513 1.598.581.3 1.293.069 1.59-.516l1.878-3.677 8.797.035 1.861 3.642a1.18 1.18 0 0 0 1.59.512 1.19 1.19 0 0 0 .512-1.598zm-11.546-4.96 3.179-6.224 3.193 6.251-6.372-.024z" data-color="2"></path>
        <path fill="#524868" d="m98.796 65.269-7.277-14.25a1.9 1.9 0 0 0-3.388 0l-4.556 8.923-3-.01h-.003c-.65 0-1.18.528-1.18 1.182 0 .658.523 1.19 1.177 1.194l1.799.007-1.51 2.957c-.3.585-.07 1.301.512 1.599.581.3 1.294.069 1.59-.516l2.06-4.033 9.644.038 2.04 3.995a1.18 1.18 0 0 0 1.593.512 1.19 1.19 0 0 0 .513-1.598zm-12.571-5.317 3.602-7.05 3.616 7.078-7.215-.028z" data-color="2"></path>
        <path fill="#524868" d="M51.173 35.536c.162-.446.265-.9.303-1.353.11-1.283-.32-2.529-1.211-3.508a5.05 5.05 0 0 0-3.72-1.643h-6.653c-1.018 0-1.85.834-1.85 1.861v5.421h-2.285c-.654 0-1.18.533-1.18 1.187s.53 1.186 1.18 1.186h2.284v5.241c0 .658.53 1.187 1.18 1.187s1.18-.533 1.18-1.187v-5.24h3.678l3.778 5.884a1.177 1.177 0 0 0 1.634.353 1.19 1.19 0 0 0 .35-1.64l-2.965-4.622c1.947-.117 3.65-1.339 4.297-3.127m-2.222-.813c-.344.948-1.3 1.588-2.381 1.588h-6.172v-4.906h6.141c.753 0 1.472.319 1.978.872.44.481.654 1.086.599 1.699-.02.245-.08.494-.169.747z" data-color="2"></path>
        <path fill="#524868" d="M59.633 56.776c.162-.446.262-.903.303-1.353.11-1.283-.32-2.528-1.21-3.507a5.05 5.05 0 0 0-3.72-1.643h-6.654c-1.018 0-1.85.833-1.85 1.857v5.421h-2.285c-.654 0-1.18.533-1.18 1.186 0 .654.53 1.187 1.18 1.187H46.5v5.241c0 .657.53 1.187 1.18 1.187s1.18-.533 1.18-1.187v-5.24h3.678l3.778 5.883a1.177 1.177 0 0 0 1.634.353 1.19 1.19 0 0 0 .35-1.64L55.337 59.9c1.944-.118 3.65-1.335 4.297-3.127zm-2.222-.813c-.344.951-1.3 1.588-2.381 1.588h-6.172v-4.905h6.141c.75 0 1.473.318 1.978.871.44.481.654 1.087.602 1.699-.02.245-.079.495-.168.747" data-color="2"></path>
        <path fill="#524868" d="M12.196 66.124c-.09 0-.175 0-.268-.004h-6.09a1.927 1.927 0 0 1-1.916-1.916l-.065-11.33H1.18c-.654 0-1.18-.533-1.18-1.187 0-.653.53-1.186 1.18-1.186h10.803c3.781 0 7.094 2.563 7.882 6.092a7.43 7.43 0 0 1-.234 4.078c-.609 1.896-2.945 5.453-7.435 5.453m-5.914-2.377h5.68c4.07.163 5.371-3.667 5.426-3.83.32-.937.375-1.875.169-2.805-.547-2.453-2.89-4.234-5.574-4.234H6.22z" data-color="2"></path>
        <path fill="#524868" d="M32.657 67.286c-5.288 0-9.589-4.024-9.589-8.974s4.3-8.974 9.589-8.974c5.288 0 9.588 4.024 9.588 8.974s-4.3 8.974-9.588 8.974m0-15.571c-3.984 0-7.225 2.961-7.225 6.597s3.24 6.597 7.225 6.597 7.225-2.961 7.225-6.597-3.241-6.597-7.225-6.597" data-color="2"></path>
        <path fill="#524868" d="M71.524 66.999c-3.22 0-6.234-1.57-7.99-4.207-1.73-2.601-1.943-5.812-.567-8.586l.059-.114a8.14 8.14 0 0 1 2.6-3.013c4.927-3.404 10.34-1.014 12.514.726.509.408.595 1.156.189 1.667a1.173 1.173 0 0 1-1.658.19c-.21-.165-5.006-3.874-9.71-.629a5.74 5.74 0 0 0-1.837 2.142c-1.052 2.12-.898 4.38.372 6.292 1.414 2.124 3.932 3.321 6.568 3.134 1.768-.128 3.368-.591 4.755-1.383a1.18 1.18 0 0 1 1.61.446c.32.57.123 1.294-.444 1.619-1.696.965-3.63 1.532-5.753 1.685a10 10 0 0 1-.712.024z" data-color="2"></path>
        <path fill="#524868" d="M106.265 67.13c-1.087 0-2.219-.138-3.334-.418-.667-.17-1.066-.82-.887-1.454.179-.632.86-1.016 1.534-.84 2.46.62 5.051.38 6.437-.602.637-.45.953-1.01.974-1.716.021-.74-.64-2.283-5.305-4.269-1.094-.463-1.927-1.349-2.285-2.428a3.63 3.63 0 0 1 .375-3.096c.685-1.073 1.638-1.882 2.756-2.346 3.874-1.598 6.492 1.232 7.339 2.951.292.595.02 1.3-.609 1.578-.627.276-1.37.02-1.662-.571-.148-.294-1.517-2.837-4.067-1.778-.629.259-1.204.754-1.606 1.39a1.35 1.35 0 0 0-.135 1.156c.145.432.482.788.922.975 1.703.727 6.885 2.93 6.782 6.497-.042 1.439-.726 2.667-1.979 3.556-1.307.927-3.199 1.415-5.25 1.415" data-color="2"></path>
    </g>
</svg>